<mxfile host="app.diagrams.net" modified="2023-12-28T21:31:01.312Z" agent="Mozilla/5.0 (Windows NT 10.0; Win64; x64) AppleWebKit/537.36 (KHTML, like Gecko) Chrome/119.0.0.0 Safari/537.36 OPR/105.0.0.0" etag="7_QibM9n_8FGq0CJNFe_" version="22.1.15" type="device">
  <diagram name="Страница — 1" id="IhYJgIYiEtX0AazIK7Jk">
    <mxGraphModel dx="1469" dy="647" grid="1" gridSize="10" guides="1" tooltips="1" connect="1" arrows="1" fold="1" page="1" pageScale="1" pageWidth="827" pageHeight="1169" math="0" shadow="0">
      <root>
        <mxCell id="0" />
        <mxCell id="1" parent="0" />
        <mxCell id="BBNf6gTZncF7HE7ID3vD-1" value="Менеджер/Администратор" style="shape=umlFrame;whiteSpace=wrap;html=1;pointerEvents=0;width=300;height=30;" vertex="1" parent="1">
          <mxGeometry x="80" y="40" width="300" height="630" as="geometry" />
        </mxCell>
        <mxCell id="BBNf6gTZncF7HE7ID3vD-2" value="" style="ellipse;html=1;shape=startState;fillColor=#000000;strokeColor=#ff0000;" vertex="1" parent="1">
          <mxGeometry x="215" y="80" width="30" height="30" as="geometry" />
        </mxCell>
        <mxCell id="BBNf6gTZncF7HE7ID3vD-3" value="" style="edgeStyle=orthogonalEdgeStyle;html=1;verticalAlign=bottom;endArrow=open;endSize=8;strokeColor=#ff0000;rounded=0;" edge="1" source="BBNf6gTZncF7HE7ID3vD-2" parent="1">
          <mxGeometry relative="1" as="geometry">
            <mxPoint x="230" y="140" as="targetPoint" />
          </mxGeometry>
        </mxCell>
        <mxCell id="BBNf6gTZncF7HE7ID3vD-4" value="Подготовка расписания" style="rounded=1;whiteSpace=wrap;html=1;arcSize=40;fontColor=#000000;fillColor=#ffffc0;strokeColor=#ff0000;" vertex="1" parent="1">
          <mxGeometry x="170" y="140" width="120" height="40" as="geometry" />
        </mxCell>
        <mxCell id="BBNf6gTZncF7HE7ID3vD-5" value="" style="edgeStyle=orthogonalEdgeStyle;html=1;verticalAlign=bottom;endArrow=open;endSize=8;strokeColor=#ff0000;rounded=0;" edge="1" source="BBNf6gTZncF7HE7ID3vD-4" parent="1">
          <mxGeometry relative="1" as="geometry">
            <mxPoint x="230" y="240" as="targetPoint" />
          </mxGeometry>
        </mxCell>
        <mxCell id="BBNf6gTZncF7HE7ID3vD-6" value="Добавление расписания в базу данных" style="rounded=1;whiteSpace=wrap;html=1;arcSize=40;fontColor=#000000;fillColor=#ffffc0;strokeColor=#ff0000;" vertex="1" parent="1">
          <mxGeometry x="170" y="240" width="130" height="50" as="geometry" />
        </mxCell>
        <mxCell id="BBNf6gTZncF7HE7ID3vD-7" value="" style="edgeStyle=orthogonalEdgeStyle;html=1;verticalAlign=bottom;endArrow=open;endSize=8;strokeColor=#ff0000;rounded=0;entryX=0;entryY=0.5;entryDx=0;entryDy=0;" edge="1" source="BBNf6gTZncF7HE7ID3vD-6" parent="1" target="BBNf6gTZncF7HE7ID3vD-9">
          <mxGeometry relative="1" as="geometry">
            <mxPoint x="450" y="310" as="targetPoint" />
            <Array as="points">
              <mxPoint x="350" y="270" />
              <mxPoint x="350" y="270" />
            </Array>
          </mxGeometry>
        </mxCell>
        <mxCell id="BBNf6gTZncF7HE7ID3vD-8" value="Тренер/Клиент" style="shape=umlFrame;whiteSpace=wrap;html=1;pointerEvents=0;width=300;height=30;" vertex="1" parent="1">
          <mxGeometry x="380" y="40" width="300" height="630" as="geometry" />
        </mxCell>
        <mxCell id="BBNf6gTZncF7HE7ID3vD-9" value="Сверка с расписанием" style="rounded=1;whiteSpace=wrap;html=1;arcSize=40;fontColor=#000000;fillColor=#ffffc0;strokeColor=#ff0000;" vertex="1" parent="1">
          <mxGeometry x="480" y="250" width="120" height="40" as="geometry" />
        </mxCell>
        <mxCell id="BBNf6gTZncF7HE7ID3vD-10" value="" style="edgeStyle=orthogonalEdgeStyle;html=1;verticalAlign=bottom;endArrow=open;endSize=8;strokeColor=#ff0000;rounded=0;" edge="1" source="BBNf6gTZncF7HE7ID3vD-9" parent="1">
          <mxGeometry relative="1" as="geometry">
            <mxPoint x="540" y="350" as="targetPoint" />
          </mxGeometry>
        </mxCell>
        <mxCell id="BBNf6gTZncF7HE7ID3vD-11" value="Моё" style="rhombus;whiteSpace=wrap;html=1;fontColor=#000000;fillColor=#ffffc0;strokeColor=#ff0000;" vertex="1" parent="1">
          <mxGeometry x="485" y="350" width="110" height="70" as="geometry" />
        </mxCell>
        <mxCell id="BBNf6gTZncF7HE7ID3vD-12" value="Нет&lt;br&gt;" style="edgeStyle=orthogonalEdgeStyle;html=1;align=left;verticalAlign=bottom;endArrow=open;endSize=8;strokeColor=#ff0000;rounded=0;entryX=0.75;entryY=0;entryDx=0;entryDy=0;exitX=1;exitY=0.5;exitDx=0;exitDy=0;" edge="1" source="BBNf6gTZncF7HE7ID3vD-11" parent="1" target="BBNf6gTZncF7HE7ID3vD-17">
          <mxGeometry x="-1" relative="1" as="geometry">
            <mxPoint x="680" y="370" as="targetPoint" />
          </mxGeometry>
        </mxCell>
        <mxCell id="BBNf6gTZncF7HE7ID3vD-13" value="Да&lt;br&gt;" style="edgeStyle=orthogonalEdgeStyle;html=1;align=left;verticalAlign=top;endArrow=open;endSize=8;strokeColor=#ff0000;rounded=0;exitX=0;exitY=0.5;exitDx=0;exitDy=0;entryX=0.5;entryY=0;entryDx=0;entryDy=0;" edge="1" source="BBNf6gTZncF7HE7ID3vD-11" parent="1" target="BBNf6gTZncF7HE7ID3vD-15">
          <mxGeometry x="-1" relative="1" as="geometry">
            <mxPoint x="540" y="450" as="targetPoint" />
            <Array as="points">
              <mxPoint x="453" y="385" />
            </Array>
          </mxGeometry>
        </mxCell>
        <mxCell id="BBNf6gTZncF7HE7ID3vD-14" value="" style="ellipse;html=1;shape=endState;fillColor=#000000;strokeColor=#ff0000;" vertex="1" parent="1">
          <mxGeometry x="515" y="570" width="30" height="30" as="geometry" />
        </mxCell>
        <mxCell id="BBNf6gTZncF7HE7ID3vD-15" value="Клиент приходит в зал / тренер проводит занятие" style="rounded=1;whiteSpace=wrap;html=1;arcSize=40;fontColor=#000000;fillColor=#ffffc0;strokeColor=#ff0000;" vertex="1" parent="1">
          <mxGeometry x="390" y="470" width="126" height="50" as="geometry" />
        </mxCell>
        <mxCell id="BBNf6gTZncF7HE7ID3vD-16" value="" style="edgeStyle=orthogonalEdgeStyle;html=1;verticalAlign=bottom;endArrow=open;endSize=8;strokeColor=#ff0000;rounded=0;entryX=0.5;entryY=0;entryDx=0;entryDy=0;" edge="1" source="BBNf6gTZncF7HE7ID3vD-15" parent="1" target="BBNf6gTZncF7HE7ID3vD-14">
          <mxGeometry relative="1" as="geometry">
            <mxPoint x="474" y="570" as="targetPoint" />
          </mxGeometry>
        </mxCell>
        <mxCell id="BBNf6gTZncF7HE7ID3vD-17" value="Клиент не приходит в зал / тренер не проводит занятие" style="rounded=1;whiteSpace=wrap;html=1;arcSize=40;fontColor=#000000;fillColor=#ffffc0;strokeColor=#ff0000;" vertex="1" parent="1">
          <mxGeometry x="545" y="470" width="126" height="50" as="geometry" />
        </mxCell>
        <mxCell id="BBNf6gTZncF7HE7ID3vD-18" value="" style="edgeStyle=orthogonalEdgeStyle;html=1;verticalAlign=bottom;endArrow=open;endSize=8;strokeColor=#ff0000;rounded=0;entryX=0.5;entryY=0;entryDx=0;entryDy=0;exitX=0.5;exitY=1;exitDx=0;exitDy=0;" edge="1" parent="1" source="BBNf6gTZncF7HE7ID3vD-17" target="BBNf6gTZncF7HE7ID3vD-14">
          <mxGeometry relative="1" as="geometry">
            <mxPoint x="540" y="580" as="targetPoint" />
            <mxPoint x="463" y="530" as="sourcePoint" />
          </mxGeometry>
        </mxCell>
      </root>
    </mxGraphModel>
  </diagram>
</mxfile>
